<svg width="170" height="47" viewBox="0 0 170 47" fill="none" xmlns="http://www.w3.org/2000/svg">
<g clip-path="url(#clip0_1_2)">
<mask id="mask0_1_2" style="mask-type:luminance" maskUnits="userSpaceOnUse" x="0" y="0" width="170" height="47">
<path d="M170 0H0V46.4594H170V0Z" fill="white"/>
</mask>
<g mask="url(#mask0_1_2)">
<path d="M41.299 25.8099C41.299 31.5106 38.9889 36.6749 35.2537 40.4141C31.5145 44.1493 26.3502 46.4594 20.6495 46.4594C9.24411 46.4594 0 37.2153 0 25.8099V5.45013C0 8.46102 2.43925 10.9003 5.45015 10.9003C8.46104 10.9003 10.9003 8.46102 10.9003 5.45013V5.16431H20.6495C32.0509 5.16039 41.299 14.4084 41.299 25.8099Z" fill="#00ADB5"/>
<path d="M19.5023 36.7062C25.5202 36.7062 30.3987 31.8278 30.3987 25.8099C30.3987 19.792 25.5202 14.9135 19.5023 14.9135C13.4844 14.9135 8.60596 19.792 8.60596 25.8099C8.60596 31.8278 13.4844 36.7062 19.5023 36.7062Z" fill="#222831"/>
<path d="M5.45015 10.9003C8.46018 10.9003 10.9003 8.46018 10.9003 5.45015C10.9003 2.44011 8.46018 0 5.45015 0C2.44011 0 0 2.44011 0 5.45015C0 8.46018 2.44011 10.9003 5.45015 10.9003Z" fill="#EDEDED"/>
<path d="M30.3988 25.8099H19.5024V36.7063H30.3988V25.8099Z" fill="#393E46"/>
<path d="M75.0688 5.67331V3.4494H77.6256C78.855 3.4494 79.8534 4.44781 79.8534 5.67723C79.8534 6.90664 78.855 7.90506 77.6256 7.90506H77.2928C76.0633 7.90114 75.0688 6.90664 75.0688 5.67331Z" fill="white"/>
<path d="M55.6685 27.7049V2.9678H60.3786V11.9496C61.7294 10.0585 63.5187 9.11488 65.7544 9.11488C66.9329 9.11488 67.9822 9.34197 68.9023 9.79615C69.8224 10.2503 70.6016 10.8964 71.2398 11.7303C71.878 12.5643 72.3635 13.551 72.6923 14.6942C73.0251 15.8375 73.1896 17.0943 73.1896 18.4686C73.1896 19.9917 72.9938 21.3542 72.6023 22.5562C72.2108 23.7582 71.6704 24.7762 70.9813 25.6102C70.2922 26.4442 69.4661 27.0824 68.4951 27.5248C67.5241 27.9672 66.4748 28.1865 65.3472 28.1865C63.088 28.1865 61.4083 27.2899 60.3042 25.5006L60.269 27.7088H55.6685V27.7049ZM64.247 24.2829C65.449 24.2829 66.4317 23.7739 67.1913 22.7559C67.9509 21.7379 68.3307 20.4185 68.3307 18.7975C68.3307 15.0662 66.9564 13.2025 64.2078 13.2025C61.5336 13.2025 60.1946 15.168 60.1946 19.0912C60.1946 20.6377 60.5822 21.8867 61.3535 22.846C62.1288 23.8052 63.0919 24.2829 64.247 24.2829Z" fill="#00ADB5"/>
<path d="M75.0688 28.1865V10.0741H79.8534V28.1865H75.0688Z" fill="#00ADB5"/>
<path d="M92.2963 15.7788H96.7519V20.9314C96.7519 21.8867 96.611 22.8029 96.3291 23.6721C96.0472 24.5452 95.6047 25.3166 95.0057 25.99C94.4027 26.6634 93.6432 27.1998 92.7231 27.5914C91.803 27.9829 90.7027 28.1787 89.4303 28.1787C88.1069 28.1787 86.9753 27.9829 86.0435 27.5914C85.1116 27.1998 84.3442 26.6713 83.7413 26.0096C83.1383 25.3479 82.7037 24.5726 82.4336 23.6917C82.1634 22.8068 82.0303 21.875 82.0303 20.8922V4.69839H86.7404V9.59258H96.7519V12.9793H86.7404V20.4146C86.7404 21.5696 86.9558 22.4584 87.3865 23.0848C87.8171 23.7113 88.5219 24.0245 89.5047 24.0245C90.46 24.0245 91.1687 23.7191 91.6228 23.1044C92.077 22.4897 92.3041 21.6205 92.3041 20.4929V15.7788H92.2963Z" fill="#00ADB5"/>
<path d="M98.6978 27.7049V2.9678H103.408V11.9496C104.759 10.0585 106.548 9.11488 108.784 9.11488C109.962 9.11488 111.011 9.34197 111.932 9.79615C112.852 10.2503 113.631 10.8964 114.269 11.7303C114.907 12.5643 115.393 13.551 115.722 14.6942C116.054 15.8375 116.219 17.0943 116.219 18.4686C116.219 19.9917 116.023 21.3542 115.632 22.5562C115.24 23.7582 114.7 24.7762 114.011 25.6102C113.322 26.4442 112.495 27.0824 111.524 27.5248C110.553 27.9672 109.504 28.1865 108.376 28.1865C106.117 28.1865 104.438 27.2899 103.334 25.5006L103.298 27.7088H98.6978V27.7049ZM107.276 24.2829C108.478 24.2829 109.461 23.7739 110.221 22.7559C110.98 21.7379 111.36 20.4185 111.36 18.7975C111.36 15.0662 109.986 13.2025 107.237 13.2025C104.563 13.2025 103.224 15.168 103.224 19.0912C103.224 20.6377 103.612 21.8867 104.383 22.846C105.158 23.8052 106.121 24.2829 107.276 24.2829Z" fill="#00ADB5"/>
<path d="M129.508 22.1099C129.163 22.9204 128.545 23.5507 127.648 24.0049C126.751 24.4591 125.741 24.6862 124.61 24.6862C123.65 24.6862 122.769 24.5335 121.959 24.2242C121.148 23.9149 120.452 23.4763 119.86 22.9008C119.273 22.3252 118.811 21.6361 118.478 20.8374C118.145 20.0387 117.981 19.1381 117.981 18.1319V9.59647H122.765V17.4389C122.765 19.698 123.783 20.8257 125.819 20.8257C126.924 20.8257 127.812 20.5085 128.49 19.8664C129.163 19.2282 129.504 18.4177 129.504 17.4389V9.59647H134.296V24.9837C134.296 26.2601 134.081 27.3995 133.65 28.4057C133.219 29.412 132.632 30.2577 131.884 30.9468C131.136 31.632 130.252 32.1606 129.234 32.5286C128.216 32.8966 127.131 33.0807 125.976 33.0807C123.302 33.0807 121.301 32.4072 119.978 31.0564C118.654 29.7056 117.989 27.8537 117.989 25.4966H122.444C122.444 26.5773 122.758 27.423 123.384 28.0377C124.011 28.6524 124.946 28.9578 126.199 28.9578C126.642 28.9578 127.057 28.8638 127.452 28.6798C127.844 28.4958 128.192 28.2374 128.501 27.9085C128.807 27.5757 129.054 27.1646 129.238 26.6752C129.422 26.1857 129.516 25.6454 129.516 25.0542V22.1099H129.508Z" fill="#00ADB5"/>
<path d="M146.735 15.7788H151.191V20.9314C151.191 21.8867 151.05 22.8029 150.768 23.6721C150.486 24.5452 150.044 25.3166 149.441 25.99C148.838 26.6634 148.078 27.1998 147.158 27.5914C146.238 27.9829 145.138 28.1787 143.865 28.1787C142.538 28.1787 141.41 27.9829 140.479 27.5914C139.547 27.1998 138.779 26.6713 138.176 26.0096C137.573 25.3479 137.139 24.5726 136.869 23.6917C136.598 22.8068 136.465 21.875 136.465 20.8922V4.69839H141.175V9.59258H151.187V12.9793H141.175V20.4146C141.175 21.5696 141.391 22.4584 141.822 23.0848C142.252 23.7113 142.957 24.0245 143.94 24.0245C144.895 24.0245 145.604 23.7191 146.058 23.1044C146.512 22.4897 146.739 21.6205 146.739 20.4929V15.7788H146.735Z" fill="#00ADB5"/>
<path d="M157.522 19.9016C157.596 21.2759 157.996 22.3683 158.72 23.1788C159.444 23.9892 160.396 24.3925 161.574 24.3925C162.361 24.3925 163.054 24.2163 163.653 23.86C164.252 23.5037 164.64 23.0065 164.812 22.3683H169.746C169.182 24.232 168.199 25.6689 166.801 26.6752C165.403 27.6814 163.732 28.1826 161.793 28.1826C155.756 28.1826 152.737 24.8937 152.737 18.3159C152.737 16.9181 152.933 15.6535 153.325 14.5259C153.716 13.3983 154.288 12.4273 155.036 11.6168C155.783 10.8063 156.7 10.1877 157.776 9.75699C158.857 9.32631 160.094 9.11096 161.496 9.11096C164.291 9.11096 166.41 10.0076 167.847 11.7969C169.284 13.5901 170 16.2878 170 19.8938H157.522V19.9016ZM165.067 16.8829C165.043 16.2212 164.926 15.6378 164.718 15.1367C164.511 14.6355 164.233 14.2166 163.888 13.8838C163.544 13.551 163.152 13.3082 162.71 13.1477C162.267 12.9871 161.813 12.9088 161.347 12.9088C160.392 12.9088 159.562 13.2573 158.861 13.9581C158.16 14.659 157.761 15.6339 157.663 16.8829H165.067Z" fill="#00ADB5"/>
<path d="M64.0626 37.9553H61.9248V37.18H67.0852V37.9553H64.9474V43.4211H64.0665V37.9553H64.0626Z" fill="#222831"/>
<path d="M76.6858 42.6419V43.4172H72.1597V37.18H76.5644V37.9553H73.0524V39.8738H76.1807V40.6294H73.0524V42.6458H76.6858V42.6419Z" fill="#222831"/>
<path d="M83.3065 43.0765C82.8053 42.7985 82.4099 42.4187 82.124 41.9332C81.8382 41.4477 81.6973 40.9035 81.6973 40.2966C81.6973 39.6897 81.8382 39.1455 82.124 38.66C82.4099 38.1745 82.8053 37.7947 83.3104 37.5206C83.8155 37.2427 84.3793 37.1056 85.0057 37.1056C85.4912 37.1056 85.9376 37.1878 86.3448 37.3523C86.748 37.5167 87.0926 37.7595 87.3784 38.0805L86.7989 38.6404C86.3291 38.1471 85.7418 37.9004 85.041 37.9004C84.579 37.9004 84.16 38.0061 83.7841 38.2137C83.4083 38.4212 83.1185 38.707 82.9071 39.075C82.6957 39.4392 82.59 39.8503 82.59 40.3005C82.59 40.7508 82.6957 41.1619 82.9071 41.526C83.1185 41.8902 83.4122 42.1799 83.7841 42.3874C84.16 42.5949 84.579 42.7006 85.041 42.7006C85.7379 42.7006 86.3213 42.4501 86.7989 41.9528L87.3784 42.5127C87.0926 42.8338 86.748 43.0765 86.3409 43.2449C85.9337 43.4132 85.4873 43.4955 84.9979 43.4955C84.3714 43.4915 83.8076 43.3506 83.3065 43.0765Z" fill="#222831"/>
<path d="M98.1184 37.18V43.4211H97.2257V40.6412H93.6432V43.4211H92.7505V37.18H93.6432V39.862H97.2257V37.18H98.1184Z" fill="#222831"/>
<path d="M109.461 37.18V43.4211H108.729L104.985 38.7657V43.4211H104.093V37.18H104.825L108.568 41.8354V37.18H109.461Z" fill="#222831"/>
<path d="M116.548 43.0765C116.043 42.7985 115.647 42.4187 115.357 41.9293C115.068 41.4438 114.927 40.8996 114.927 40.2966C114.927 39.6976 115.072 39.1534 115.357 38.6639C115.647 38.1784 116.043 37.7947 116.548 37.5167C117.053 37.2388 117.621 37.1017 118.251 37.1017C118.873 37.1017 119.441 37.2388 119.946 37.5167C120.451 37.7947 120.847 38.1745 121.133 38.6561C121.418 39.1416 121.559 39.6858 121.559 40.2927C121.559 40.8996 121.418 41.4438 121.133 41.9293C120.847 42.4148 120.451 42.7946 119.946 43.0726C119.441 43.3506 118.877 43.4876 118.251 43.4876C117.621 43.4915 117.053 43.3506 116.548 43.0765ZM119.484 42.3835C119.848 42.176 120.138 41.8902 120.35 41.5221C120.561 41.158 120.667 40.7469 120.667 40.2966C120.667 39.8464 120.561 39.4353 120.35 39.0711C120.138 38.707 119.852 38.4173 119.484 38.2098C119.12 38.0022 118.709 37.8965 118.251 37.8965C117.793 37.8965 117.378 38.0022 117.006 38.2098C116.634 38.4173 116.344 38.7031 116.133 39.0711C115.921 39.4353 115.816 39.8464 115.816 40.2966C115.816 40.7469 115.921 41.158 116.133 41.5221C116.344 41.8863 116.634 42.176 117.006 42.3835C117.378 42.591 117.793 42.6967 118.251 42.6967C118.709 42.6967 119.12 42.5949 119.484 42.3835Z" fill="#222831"/>
<path d="M127.021 37.18H127.914V42.6458H131.293V43.4211H127.021V37.18Z" fill="#222831"/>
<path d="M137.42 43.0765C136.915 42.7985 136.52 42.4187 136.23 41.9293C135.94 41.4438 135.799 40.8996 135.799 40.2966C135.799 39.6976 135.944 39.1534 136.23 38.6639C136.52 38.1784 136.915 37.7947 137.42 37.5167C137.925 37.2388 138.493 37.1017 139.123 37.1017C139.746 37.1017 140.314 37.2388 140.819 37.5167C141.324 37.7947 141.719 38.1745 142.005 38.6561C142.291 39.1416 142.432 39.6858 142.432 40.2927C142.432 40.8996 142.287 41.4438 142.005 41.9293C141.719 42.4148 141.324 42.7946 140.819 43.0726C140.314 43.3506 139.75 43.4876 139.123 43.4876C138.493 43.4915 137.925 43.3506 137.42 43.0765ZM140.357 42.3835C140.721 42.176 141.011 41.8902 141.222 41.5221C141.433 41.158 141.539 40.7469 141.539 40.2966C141.539 39.8464 141.433 39.4353 141.222 39.0711C141.011 38.707 140.725 38.4173 140.357 38.2098C139.993 38.0022 139.578 37.8965 139.123 37.8965C138.665 37.8965 138.25 38.0022 137.878 38.2098C137.506 38.4173 137.217 38.7031 137.005 39.0711C136.794 39.4353 136.688 39.8464 136.688 40.2966C136.688 40.7469 136.794 41.158 137.005 41.5221C137.217 41.8863 137.506 42.176 137.878 42.3835C138.25 42.591 138.665 42.6967 139.123 42.6967C139.578 42.6967 139.989 42.5949 140.357 42.3835Z" fill="#222831"/>
<path d="M152.216 40.2614H153.074V42.6967C152.764 42.9512 152.404 43.147 151.997 43.284C151.586 43.4211 151.159 43.4876 150.713 43.4876C150.082 43.4876 149.515 43.3506 149.01 43.0726C148.505 42.7946 148.109 42.4148 147.819 41.9293C147.53 41.4438 147.389 40.8996 147.389 40.2927C147.389 39.6858 147.534 39.1416 147.819 38.6522C148.109 38.1667 148.505 37.783 149.014 37.5128C149.523 37.2388 150.094 37.1017 150.728 37.1017C151.23 37.1017 151.68 37.1839 152.087 37.3484C152.494 37.5128 152.839 37.7517 153.125 38.0649L152.573 38.6169C152.071 38.1354 151.468 37.8965 150.764 37.8965C150.29 37.8965 149.863 37.9983 149.483 38.2058C149.104 38.4094 148.81 38.6953 148.595 39.0633C148.379 39.4274 148.274 39.8385 148.274 40.2966C148.274 40.7469 148.379 41.158 148.595 41.5221C148.81 41.8863 149.104 42.176 149.483 42.3835C149.859 42.591 150.282 42.6967 150.752 42.6967C151.312 42.6967 151.797 42.5636 152.212 42.2974V40.2614H152.216Z" fill="#222831"/>
<path d="M161.269 41.2598V43.4171H160.384V41.2402L157.905 37.1761H158.861L160.857 40.465L162.862 37.1761H163.743L161.269 41.2598Z" fill="#222831"/>
</g>
</g>
<defs>
<clipPath id="clip0_1_2">
<rect width="170" height="47" fill="white"/>
</clipPath>
</defs>
</svg>
