<svg xmlns="http://www.w3.org/2000/svg" width="348" height="110" viewBox="0 0 348 110" fill="none"><path d="M149.049 34.4744C144.745 34.4744 140.721 35.6227 137.244 37.6509V10.2857H125.429V58.0943C125.429 66.8297 130.183 74.4705 137.244 78.5377C140.721 80.566 144.745 81.7142 149.049 81.7142C162.098 81.7142 172.668 71.1438 172.668 58.0943C172.668 45.0449 162.087 34.4744 149.049 34.4744ZM149.049 69.8989C142.545 69.8989 137.244 64.5976 137.244 58.0943C137.244 51.5911 142.545 46.279 149.049 46.279C155.552 46.279 160.864 51.5911 160.864 58.0943C160.864 64.5976 155.552 69.8989 149.049 69.8989Z" fill="#FB6970"></path><path d="M323.564 34.4743C310.515 34.4743 299.944 45.0448 299.944 58.0942C299.944 71.1437 310.515 81.7141 323.564 81.7141C336.614 81.7141 347.184 71.1437 347.184 58.0942C347.184 45.0448 336.614 34.4743 323.564 34.4743ZM323.564 69.8988C317.05 69.8988 311.749 64.5975 311.749 58.0942C311.749 51.5802 317.05 46.2789 323.564 46.2789C330.067 46.2789 335.369 51.5802 335.369 58.0942C335.369 64.5975 330.078 69.8988 323.564 69.8988Z" fill="#FB6970"></path><path d="M218.578 34.4636H206.774V81.7141H218.578V34.4636Z" fill="#FB6970"></path><path d="M218.578 21.9937C218.578 25.2668 215.938 27.9067 212.676 27.9067C209.424 27.9067 206.774 25.2668 206.774 21.9937C206.774 18.742 209.424 16.0914 212.676 16.0914C215.938 16.0914 218.578 18.742 218.578 21.9937Z" fill="#FB6970"></path><path d="M200.217 70.5213V81.7142H193.295C188.841 81.7142 185.343 80.3299 182.896 77.5612C180.46 74.7924 179.237 70.8969 179.237 65.8531V10.2857H191.041V65.9605C191.041 67.4199 191.363 68.5467 191.997 69.3301C192.63 70.1243 193.52 70.5106 194.69 70.5106H200.217V70.5213Z" fill="#FB6970"></path><path d="M284.223 46.279V65.9712C284.223 67.4414 284.545 68.5467 285.188 69.3409C285.811 70.1243 286.702 70.5213 287.871 70.5213H293.409V81.7142H286.498C282.033 81.7142 278.535 80.3406 276.088 77.5719C273.652 74.8032 272.429 70.8969 272.429 65.8639V22.6591H284.233V34.4744H293.409V46.279H284.223Z" fill="#FB6970"></path><path d="M265.829 54.8104V81.7141H254.024V54.8104C254.024 51.4837 252.082 48.4574 249.077 47.073C247.939 46.5472 246.738 46.2789 245.493 46.2789C244.248 46.2789 243.057 46.5472 241.93 47.0516C238.904 48.4574 236.961 51.4837 236.961 54.8104V81.7141H225.146V54.8104C225.146 46.6223 229.986 39.561 236.961 36.3523C239.558 35.1397 242.445 34.4743 245.493 34.4743C248.54 34.4743 251.427 35.1397 254.024 36.3523C260.978 39.561 265.829 46.6223 265.829 54.8104Z" fill="#FB6970"></path><path d="M84.1246 41.3582C89.8058 37.1106 93.3689 30.3899 93.3689 22.9706C93.3549 10.3116 83.0164 0 70.2932 0C62.0168 0 54.5821 4.38732 50.5 11.1919C46.4179 4.38732 38.9832 0 30.7068 0C17.9836 0 7.64514 10.3116 7.64514 22.9845C7.64514 30.3899 11.2082 37.1246 16.8894 41.3721C6.80347 45.3822 0 55.1489 0 66.215C0 80.9838 12.0639 93 26.8913 93C36.9071 93 45.8708 87.4949 50.5 79.0556C55.1292 87.5089 64.0929 93 74.1088 93C88.9361 92.986 101 80.9838 101 66.215C101 55.1489 94.1965 45.3822 84.1246 41.3582ZM54.3015 18.8627C56.1812 11.5971 62.7603 6.52509 70.2932 6.52509C79.3972 6.52509 86.8039 13.9025 86.8039 22.9706C86.8039 30.4737 81.7118 37.0267 74.4174 38.899C73.0847 39.2483 71.6819 39.416 70.2792 39.416H53.7825V22.9845C53.7825 21.5873 53.9508 20.1901 54.3015 18.8627ZM14.1961 22.9845C14.1961 13.9165 21.6028 6.53906 30.7068 6.53906C38.2397 6.53906 44.8188 11.611 46.6985 18.8767C47.0492 20.204 47.2175 21.6013 47.2175 22.9985V39.444H30.7068C29.304 39.444 27.9153 39.2763 26.5826 38.927C19.2882 37.0407 14.1961 30.4877 14.1961 22.9845ZM46.5862 71.273C44.2717 80.2153 36.1776 86.4609 26.8913 86.4609C15.6831 86.4609 6.565 77.3789 6.565 66.215C6.565 56.9653 12.8354 48.9032 21.8132 46.5978C23.4544 46.1786 25.1658 45.9691 26.9053 45.9691H30.7208H47.2315V66.215C47.2175 67.9336 47.0071 69.6382 46.5862 71.273ZM74.1088 86.4609C64.8224 86.4609 56.7283 80.2153 54.4138 71.273C53.9929 69.6382 53.7825 67.9336 53.7825 66.201V45.9551H70.2932H74.1088C75.8342 45.9551 77.5456 46.1647 79.1868 46.5838C88.1646 48.8893 94.435 56.9513 94.435 66.201C94.435 77.3789 85.3169 86.4609 74.1088 86.4609Z" fill="#FB6970"></path><path d="M221.897 106H223.444L226.827 94.1H225.365L222.611 104.249L219.687 94.1H218.327L215.403 104.249L212.666 94.1H211.187L214.587 106H216.117L219.007 96.123L221.897 106ZM228.46 101.614C228.46 104.334 230.313 106.221 232.999 106.221C235.005 106.221 236.161 105.133 236.654 104.3L235.77 103.654C235.345 104.249 234.512 105.031 233.016 105.031C231.18 105.031 229.854 103.841 229.837 101.869H236.926C236.943 101.699 236.943 101.512 236.943 101.461C236.943 98.809 235.345 96.939 232.744 96.939C230.398 96.939 228.46 98.792 228.46 101.614ZM229.905 100.866C230.007 99.2 231.299 98.095 232.744 98.095C234.206 98.095 235.481 99.03 235.566 100.866H229.905ZM240.011 106H241.303V104.606C241.524 104.929 242.459 106.221 244.38 106.221C246.896 106.221 248.698 104.3 248.698 101.597C248.698 98.877 246.981 96.939 244.482 96.939C242.629 96.939 241.626 98.129 241.354 98.588V93.709H240.011V106ZM241.303 101.614C241.303 99.421 242.663 98.163 244.329 98.163C246.063 98.163 247.321 99.591 247.321 101.614C247.321 103.671 245.995 105.014 244.295 105.014C242.459 105.014 241.303 103.467 241.303 101.614ZM251.117 104.334C251.508 105.167 252.341 106.221 254.194 106.221C255.911 106.221 257.203 105.167 257.203 103.603C257.203 100.526 252.749 101.274 252.749 99.285C252.749 98.52 253.395 98.061 254.211 98.061C255.35 98.061 255.809 98.724 256.047 99.2L257.033 98.639C256.795 97.976 255.945 96.939 254.296 96.939C252.698 96.939 251.457 97.84 251.457 99.336C251.457 102.328 255.894 101.631 255.894 103.671C255.894 104.572 255.146 105.082 254.262 105.082C253.055 105.082 252.426 104.419 252.052 103.722L251.117 104.334ZM260.229 106H261.572V97.16H260.229V106ZM259.974 94.882C259.974 95.409 260.382 95.817 260.892 95.817C261.419 95.817 261.827 95.409 261.827 94.882C261.827 94.372 261.419 93.964 260.892 93.964C260.382 93.964 259.974 94.372 259.974 94.882ZM265.343 97.16H264.306V98.299H265.343V102.974C265.343 104.963 266.108 106.119 267.876 106.119C268.335 106.119 268.692 106.068 268.692 106.068V104.878C268.692 104.878 268.488 104.895 268.318 104.895C267.162 104.895 266.686 104.504 266.686 102.855V98.299H268.624V97.16H266.686V95.307H265.343V97.16ZM271.037 101.614C271.037 104.334 272.89 106.221 275.576 106.221C277.582 106.221 278.738 105.133 279.231 104.3L278.347 103.654C277.922 104.249 277.089 105.031 275.593 105.031C273.757 105.031 272.431 103.841 272.414 101.869H279.503C279.52 101.699 279.52 101.512 279.52 101.461C279.52 98.809 277.922 96.939 275.321 96.939C272.975 96.939 271.037 98.792 271.037 101.614ZM272.482 100.866C272.584 99.2 273.876 98.095 275.321 98.095C276.783 98.095 278.058 99.03 278.143 100.866H272.482ZM288.451 106H290.899C294.877 106 297.274 103.994 297.274 100.05C297.274 96.327 294.962 94.1 290.899 94.1H288.451V106ZM289.828 104.776V95.341H291.171C294.027 95.341 295.863 97.075 295.863 100.05C295.863 103.161 294.027 104.776 291.171 104.776H289.828ZM299.87 101.614C299.87 104.334 301.723 106.221 304.409 106.221C306.415 106.221 307.571 105.133 308.064 104.3L307.18 103.654C306.755 104.249 305.922 105.031 304.426 105.031C302.59 105.031 301.264 103.841 301.247 101.869H308.336C308.353 101.699 308.353 101.512 308.353 101.461C308.353 98.809 306.755 96.939 304.154 96.939C301.808 96.939 299.87 98.792 299.87 101.614ZM301.315 100.866C301.417 99.2 302.709 98.095 304.154 98.095C305.616 98.095 306.891 99.03 306.976 100.866H301.315ZM310.757 104.334C311.148 105.167 311.981 106.221 313.834 106.221C315.551 106.221 316.843 105.167 316.843 103.603C316.843 100.526 312.389 101.274 312.389 99.285C312.389 98.52 313.035 98.061 313.851 98.061C314.99 98.061 315.449 98.724 315.687 99.2L316.673 98.639C316.435 97.976 315.585 96.939 313.936 96.939C312.338 96.939 311.097 97.84 311.097 99.336C311.097 102.328 315.534 101.631 315.534 103.671C315.534 104.572 314.786 105.082 313.902 105.082C312.695 105.082 312.066 104.419 311.692 103.722L310.757 104.334ZM319.869 106H321.212V97.16H319.869V106ZM319.614 94.882C319.614 95.409 320.022 95.817 320.532 95.817C321.059 95.817 321.467 95.409 321.467 94.882C321.467 94.372 321.059 93.964 320.532 93.964C320.022 93.964 319.614 94.372 319.614 94.882ZM325.357 108.38C326.122 108.856 327.363 109.264 328.519 109.264C331.069 109.264 332.956 108.125 332.956 104.776V97.16H331.664V98.588C331.375 98.112 330.372 96.939 328.536 96.939C326.037 96.939 324.286 98.877 324.286 101.597C324.286 104.3 326.02 106.221 328.553 106.221C330.491 106.221 331.409 104.929 331.613 104.606V105.388C331.613 107.36 330.185 108.057 328.502 108.057C327.227 108.057 326.173 107.53 325.833 107.326L325.357 108.38ZM331.664 101.597C331.664 103.501 330.491 104.997 328.672 104.997C326.972 104.997 325.646 103.654 325.646 101.597C325.646 99.574 326.921 98.163 328.638 98.163C330.321 98.163 331.664 99.455 331.664 101.597ZM340.528 96.939C339.304 96.939 338.318 97.636 337.893 98.435V97.16H336.567V106H337.91V100.628C337.91 99.166 338.845 98.163 340.205 98.163C341.412 98.163 342.296 99.013 342.296 100.424V106H343.639V100.475C343.639 98.469 342.585 96.939 340.528 96.939Z" fill="#2E2D31"></path></svg>