<svg width="2500" height="657" viewBox="0 0 2500 657" fill="none" xmlns="http://www.w3.org/2000/svg">
<path d="M40.4629 170.85L294.15 294.151L272.944 60.1344L40.4629 170.85Z" fill="#6DA1EF"/>
<path d="M506.94 484.588L272.934 374.244V60.133L507.598 166.002L506.94 484.588Z" fill="#0B63E5"/>
<path d="M506.951 484.589L253.363 361.343L272.935 595.296L506.951 484.589Z" fill="#243752"/>
<path d="M40.4723 170.864L272.944 281.208V595.299L39.9258 489.5L40.4723 170.864Z" fill="#061C3D"/>
<path d="M660.694 485.634V152.58H732.062V421.402H882.888V485.634H660.694ZM1037.96 490.392C1012.26 490.392 989.266 484.841 968.966 473.739C948.982 462.32 933.123 446.777 921.386 427.111C909.967 407.445 904.258 384.924 904.258 359.549C904.258 334.173 909.967 311.811 921.386 292.462C933.123 272.796 948.982 257.254 968.966 245.835C989.266 234.416 1012.26 228.706 1037.96 228.706C1063.33 228.706 1086.01 234.416 1105.99 245.835C1126.29 257.254 1142.15 272.796 1153.57 292.462C1164.99 311.811 1170.7 334.173 1170.7 359.549C1170.7 384.924 1164.99 407.445 1153.57 427.111C1142.15 446.777 1126.29 462.32 1105.99 473.739C1086.01 484.841 1063.33 490.392 1037.96 490.392ZM1037.96 431.393C1050.33 431.393 1061.43 428.38 1071.26 422.353C1081.09 416.009 1088.71 407.445 1094.1 396.661C1099.81 385.559 1102.66 373.188 1102.66 359.549C1102.66 345.592 1099.81 333.222 1094.1 322.437C1088.71 311.335 1081.09 302.771 1071.26 296.744C1061.43 290.4 1050.33 287.229 1037.96 287.229C1025.27 287.229 1014.01 290.4 1004.17 296.744C994.341 303.088 986.57 311.652 980.86 322.437C975.151 333.222 972.455 345.592 972.772 359.549C972.455 373.188 975.151 385.559 980.86 396.661C986.57 407.445 994.341 416.009 1004.17 422.353C1014.01 428.38 1025.27 431.393 1037.96 431.393ZM1211.54 485.634V233.94H1276.72L1278.15 281.995L1268.16 283.898C1271.65 275.651 1276.25 268.197 1281.96 261.536C1287.67 254.875 1294.33 249.165 1301.94 244.407C1309.87 239.649 1318.12 236.002 1326.68 233.464C1335.25 230.609 1343.81 229.182 1352.38 229.182C1365.38 229.182 1377.12 231.244 1387.58 235.367C1398.05 239.491 1406.93 245.993 1414.23 254.875C1421.52 263.439 1427.23 274.858 1431.36 289.132L1420.89 288.18L1424.22 280.567C1428.34 272.955 1433.58 266.135 1439.92 260.108C1446.27 253.765 1453.4 248.372 1461.33 243.931C1469.26 239.174 1477.51 235.526 1486.07 232.988C1494.64 230.451 1503.04 229.182 1511.29 229.182C1530.96 229.182 1547.29 233.147 1560.3 241.077C1573.3 248.689 1582.98 260.267 1589.32 275.81C1595.98 291.352 1599.31 310.384 1599.31 332.905V485.634H1531.75V337.662C1531.75 326.243 1530.16 316.886 1526.99 309.591C1523.82 302.295 1519.22 296.903 1513.19 293.414C1507.17 289.607 1499.4 287.704 1489.88 287.704C1482.58 287.704 1475.76 288.973 1469.42 291.511C1463.39 293.731 1458 297.062 1453.24 301.502C1448.8 305.626 1445.31 310.542 1442.78 316.252C1440.24 321.961 1438.97 328.305 1438.97 335.283V485.634H1371.41V337.187C1371.41 326.719 1369.66 317.838 1366.17 310.542C1363 302.93 1358.4 297.22 1352.38 293.414C1346.35 289.607 1338.89 287.704 1330.01 287.704C1322.72 287.704 1315.9 288.973 1309.55 291.511C1303.53 293.731 1298.29 297.062 1293.85 301.502C1289.41 305.626 1285.76 310.542 1282.91 316.252C1280.37 321.961 1279.1 328.147 1279.1 334.808V485.634H1211.54ZM1773.56 490.392C1746.28 490.392 1722.49 484.841 1702.19 473.739C1681.89 462.637 1666.03 447.412 1654.61 428.063C1643.19 408.714 1637.48 386.51 1637.48 361.452C1637.48 342.103 1640.65 324.34 1646.99 308.163C1653.34 291.986 1662.22 278.03 1673.64 266.294C1685.06 254.24 1698.54 245.042 1714.08 238.698C1729.94 232.037 1747.07 228.706 1765.47 228.706C1782.6 228.706 1798.45 231.878 1813.05 238.222C1827.64 244.249 1840.17 252.972 1850.63 264.391C1861.42 275.492 1869.66 288.656 1875.37 303.881C1881.08 319.107 1883.62 335.759 1882.99 353.839L1882.51 374.774H1680.3L1669.36 333.38H1826.84L1819.23 341.945V331.477C1818.6 322.913 1815.74 315.142 1810.67 308.163C1805.91 301.185 1799.72 295.793 1792.11 291.986C1784.5 288.18 1775.93 286.277 1766.42 286.277C1752.46 286.277 1740.57 288.973 1730.73 294.365C1721.22 299.758 1713.92 307.688 1708.85 318.155C1703.77 328.622 1701.23 341.31 1701.23 356.218C1701.23 371.444 1704.41 384.607 1710.75 395.709C1717.41 406.811 1726.61 415.534 1738.35 421.878C1750.4 427.904 1764.51 430.918 1780.69 430.918C1791.79 430.918 1801.94 429.173 1811.14 425.684C1820.34 422.195 1830.17 416.168 1840.64 407.604L1873 452.804C1863.8 461.051 1853.65 468.029 1842.54 473.739C1831.44 479.131 1820.02 483.255 1808.29 486.109C1796.55 488.964 1784.97 490.392 1773.56 490.392ZM1953.96 595.066L2009.15 465.65L2010.11 504.665L1887.35 233.94H1963.95L2025.33 379.056C2027.87 384.449 2030.25 390.792 2032.47 398.088C2035 405.066 2037.07 411.886 2038.65 418.547L2027.23 423.305C2029.14 417.913 2031.36 411.727 2033.89 404.749C2036.43 397.771 2038.97 390.317 2041.51 382.387L2094.32 233.94H2171.4L2065.77 485.634L2022.48 595.066H1953.96ZM2310.64 490.392C2284.95 490.392 2261.95 484.841 2241.65 473.739C2221.67 462.32 2205.81 446.777 2194.07 427.111C2182.65 407.445 2176.94 384.924 2176.94 359.549C2176.94 334.173 2182.65 311.811 2194.07 292.462C2205.81 272.796 2221.67 257.254 2241.65 245.835C2261.95 234.416 2284.95 228.706 2310.64 228.706C2336.02 228.706 2358.7 234.416 2378.68 245.835C2398.98 257.254 2414.84 272.796 2426.26 292.462C2437.68 311.811 2443.39 334.173 2443.39 359.549C2443.39 384.924 2437.68 407.445 2426.26 427.111C2414.84 446.777 2398.98 462.32 2378.68 473.739C2358.7 484.841 2336.02 490.392 2310.64 490.392ZM2310.64 431.393C2323.01 431.393 2334.11 428.38 2343.95 422.353C2353.78 416.009 2361.39 407.445 2366.79 396.661C2372.49 385.559 2375.35 373.188 2375.35 359.549C2375.35 345.592 2372.49 333.222 2366.79 322.437C2361.39 311.335 2353.78 302.771 2343.95 296.744C2334.11 290.4 2323.01 287.229 2310.64 287.229C2297.95 287.229 2286.69 290.4 2276.86 296.744C2267.03 303.088 2259.26 311.652 2253.55 322.437C2247.84 333.222 2245.14 345.592 2245.46 359.549C2245.14 373.188 2247.84 385.559 2253.55 396.661C2259.26 407.445 2267.03 416.009 2276.86 422.353C2286.69 428.38 2297.95 431.393 2310.64 431.393Z" fill="#061C3D"/>
</svg>
