<?xml version="1.0" encoding="utf-8"?>
<!-- Generator: Adobe Illustrator 24.0.2, SVG Export Plug-In . SVG Version: 6.00 Build 0)  -->
<svg version="1.1" id="Layer_1" xmlns="http://www.w3.org/2000/svg" xmlns:xlink="http://www.w3.org/1999/xlink" x="0px" y="0px"
	 viewBox="0 0 1251 368" style="enable-background:new 0 0 1251 368;" xml:space="preserve">
<style type="text/css">
	.st0{fill:#333333;}
	.st1{fill:#EC7161;}
	.st2{fill:#FFFFFF;}
</style>
<path class="st0" d="M525.9,250.9h-25.8L467.3,197h-0.6l-32.4,53.9h-24.2l43.8-69.2l-42.3-66.1h25.8l30.8,50.4h0.4l31.2-50.4h24.2
	l-42.7,65.9L525.9,250.9z M633.4,260.4c0,10.5-4,18.4-12,23.7c-8,5.3-21.1,7.9-39.2,7.9c-8.3,0-15.3-0.6-21.1-1.7
	c-5.7-1-10.4-2.6-14.2-4.7c-3.6-2.1-6.3-4.6-7.9-7.6c-1.7-3-2.5-6.4-2.5-10.3c0-5.6,1.5-9.9,4.5-13c3.1-3.1,7.4-5.2,12.8-6.4v-2.1
	c-7.6-2.5-11.4-7.6-11.4-15.5c0-5.2,1.7-9.1,5.2-11.8c3.5-2.8,7.7-4.8,12.6-6v-0.8c-5.9-2.8-10.5-6.8-13.8-11.8
	c-3.1-5.2-4.7-11.2-4.7-18c0-10.3,3.4-18.7,10.3-25c7-6.3,16.9-9.5,29.9-9.5c7.1,0,13.2,1,18.2,3.1v-2.7c0-4.5,1-8,3.1-10.5
	c2.2-2.6,5.6-3.9,10.1-3.9h15.5v17.1h-20.6v4.1c4.5,3,8,6.9,10.5,11.6c2.5,4.7,3.7,9.9,3.7,15.7c0,10.2-3.5,18.5-10.5,24.8
	c-7,6.2-16.9,9.3-29.9,9.3c-4.9,0-9.3-0.5-13.2-1.6c-2.6,0.9-4.8,2.2-6.8,3.9c-1.9,1.6-2.9,3.6-2.9,6.2c0,2.7,1.2,4.7,3.7,5.8
	c2.5,1.2,5.9,1.7,10.5,1.7h24.8c12.4,0,21.4,2.5,26.9,7.6C630.6,244.9,633.4,251.7,633.4,260.4z M613.6,262.7c0-3.5-1.4-6.3-4.1-8.3
	c-2.6-2.1-7.4-3.1-14.3-3.1h-34.1c-4.7,2.7-7,6.6-7,11.6c0,4.1,1.6,7.4,4.8,9.9c3.4,2.6,9,3.9,16.9,3.9H589
	C605.4,276.7,613.6,272,613.6,262.7z M582,201.1c6.2,0,11-1.4,14.3-4.1c3.5-2.8,5.2-7.2,5.2-13v-3.9c0-5.8-1.7-10.1-5.2-12.8
	c-3.4-2.8-8.1-4.3-14.3-4.3c-6.2,0-11.1,1.4-14.5,4.3c-3.4,2.7-5,7-5,12.8v3.9c0,5.8,1.7,10.1,5,13C571,199.7,575.8,201.1,582,201.1
	z M687.5,253.2c-7.2,0-13.7-1.2-19.4-3.7c-5.7-2.5-10.5-5.9-14.5-10.5c-4-4.7-7.1-10.2-9.3-16.7c-2.1-6.6-3.1-13.9-3.1-21.9
	c0-8,1-15.3,3.1-21.7c2.2-6.6,5.3-12.1,9.3-16.7c4-4.7,8.9-8.2,14.5-10.7c5.7-2.5,12.1-3.7,19.4-3.7c7.4,0,13.8,1.3,19.4,3.9
	c5.7,2.6,10.4,6.2,14.2,10.9c3.7,4.5,6.5,9.8,8.3,15.9c1.9,6.1,2.9,12.6,2.9,19.6v7.9h-69.2v3.3c0,7.8,2.3,14.2,6.8,19.2
	c4.7,4.9,11.2,7.4,19.8,7.4c6.2,0,11.4-1.4,15.7-4.1c4.3-2.7,7.9-6.4,10.9-11.1l12.4,12.2c-3.7,6.2-9.2,11.2-16.3,14.9
	C705.3,251.4,697,253.2,687.5,253.2z M687.5,164.2c-3.6,0-7,0.6-10.1,1.9c-3,1.3-5.6,3.1-7.8,5.4c-2.1,2.3-3.7,5.1-4.8,8.3
	c-1.2,3.2-1.7,6.8-1.7,10.7v1.4H710V190c0-7.8-2-14-6-18.6C700,166.6,694.5,164.2,687.5,164.2z M755.7,250.9V150.1h21.1v16.7h1
	c2.2-5.4,5.5-10,9.9-13.6c4.5-3.6,10.7-5.4,18.4-5.4c10.3,0,18.4,3.4,24,10.3c5.8,6.7,8.7,16.4,8.7,28.9v64h-21.1v-61.3
	c0-15.8-6.3-23.7-19-23.7c-2.7,0-5.4,0.4-8.1,1.2c-2.6,0.6-4.9,1.7-7,3.1c-2.1,1.4-3.7,3.2-5,5.4c-1.2,2.2-1.7,4.8-1.7,7.8v67.5
	H755.7z M878.8,132c-4.4,0-7.6-1-9.7-3.1c-1.9-2.1-2.9-4.7-2.9-7.9v-3.3c0-3.2,1-5.9,2.9-7.9c2.1-2.1,5.3-3.1,9.7-3.1
	c4.4,0,7.6,1,9.5,3.1c1.9,2.1,2.9,4.7,2.9,7.9v3.3c0,3.2-1,5.9-2.9,7.9C886.4,131,883.2,132,878.8,132z M868.2,150.1h21.1v100.8
	h-21.1V150.1z M959,253.2c-7,0-13.4-1.2-19.2-3.7c-5.7-2.5-10.5-5.9-14.5-10.5c-4-4.7-7.1-10.2-9.3-16.7c-2.2-6.6-3.3-13.9-3.3-21.9
	c0-8,1.1-15.3,3.3-21.7c2.2-6.6,5.3-12.1,9.3-16.7c4-4.7,8.9-8.2,14.5-10.7c5.8-2.5,12.2-3.7,19.2-3.7c7,0,13.3,1.2,19,3.7
	c5.8,2.5,10.7,6,14.7,10.7c4,4.5,7.1,10.1,9.3,16.7c2.2,6.5,3.3,13.7,3.3,21.7c0,8-1.1,15.3-3.3,21.9c-2.2,6.5-5.3,12-9.3,16.7
	c-4,4.5-8.9,8-14.7,10.5C972.4,252,966,253.2,959,253.2z M959,235.8c7.2,0,13.1-2.2,17.4-6.6c4.4-4.5,6.6-11.2,6.6-20.2v-17.1
	c0-8.9-2.2-15.6-6.6-20c-4.4-4.5-10.2-6.8-17.4-6.8c-7.2,0-13.1,2.3-17.4,6.8c-4.4,4.4-6.6,11.1-6.6,20V209c0,8.9,2.2,15.6,6.6,20.2
	C946,233.6,951.8,235.8,959,235.8z M1090,234.2h-0.8c-0.9,2.5-2.1,4.8-3.7,7.2c-1.4,2.3-3.3,4.4-5.6,6.2c-2.2,1.7-4.9,3-8.1,4.1
	c-3.1,1-6.7,1.6-10.9,1.6c-10.5,0-18.6-3.4-24.4-10.1c-5.7-6.7-8.5-16.4-8.5-28.9v-64.2h21.1v61.5c0,15.6,6.5,23.5,19.4,23.5
	c2.7,0,5.4-0.3,7.9-1c2.6-0.8,4.8-1.9,6.8-3.3c2.1-1.4,3.7-3.2,4.8-5.4c1.3-2.2,1.9-4.8,1.9-7.8v-67.5h21.1v100.8H1090V234.2z
	 M1173.4,253.2c-9.6,0-17.6-1.7-24-5c-6.5-3.4-12.1-8-16.9-14l13.6-12.4c3.7,4.5,7.9,8.1,12.4,10.7c4.7,2.5,10,3.7,16.1,3.7
	c6.2,0,10.8-1.2,13.8-3.5c3.1-2.5,4.7-5.8,4.7-10.1c0-3.2-1.1-5.9-3.3-8.1c-2.1-2.3-5.8-3.8-11.1-4.5l-9.3-1.2
	c-10.3-1.3-18.5-4.3-24.4-8.9c-5.8-4.8-8.7-11.8-8.7-21.1c0-4.9,0.9-9.2,2.7-13c1.8-3.9,4.3-7.1,7.6-9.7c3.4-2.7,7.3-4.8,11.8-6.2
	c4.7-1.4,9.8-2.1,15.3-2.1c9,0,16.4,1.4,22.1,4.3c5.8,2.8,11,6.8,15.5,11.8l-13,12.4c-2.6-3.1-6-5.8-10.3-7.9
	c-4.1-2.3-8.9-3.5-14.3-3.5c-5.8,0-10.2,1.2-13,3.5c-2.7,2.3-4.1,5.4-4.1,9.1c0,3.9,1.2,6.8,3.7,8.7c2.5,1.9,6.4,3.4,11.8,4.3
	l9.3,1.2c11.1,1.7,19.2,5,24.2,9.9c5.2,4.8,7.8,11.2,7.8,19.4c0,4.9-1,9.4-2.9,13.4c-1.8,3.9-4.5,7.2-7.9,10.1
	c-3.5,2.8-7.7,5-12.6,6.6C1184.9,252.4,1179.4,253.2,1173.4,253.2z"/>
<g>
	<path class="st1" d="M324,360H44c-22.1,0-40-17.9-40-40V40C4,17.9,21.9,0,44,0h280c22.1,0,40,17.9,40,40v280
		C364,342.1,346.1,360,324,360z"/>
	<path class="st2" d="M208.1,109.8l-3.7-4.6l6.8-8.5c0.8-1,2-1.6,3.2-1.6h85.2c1.1,0,2,0.4,2.7,1c0.4,0.3,0.7,0.8,1,1.2
		c0.4,0.8,0.6,1.6,0.4,2.5v0.1c-0.1,0.4-0.2,0.8-0.4,1.2c-0.1,0.2-0.3,0.4-0.4,0.6l-50.6,63.1l-23.1-28.7L208.1,109.8z"/>
	<path class="st2" d="M303.8,281.4c0.2,0.9,0,1.8-0.4,2.6c-0.2,0.5-0.6,0.9-1,1.2c-0.7,0.6-1.6,1-2.7,1h-85.2
		c-1.3,0-2.4-0.6-3.2-1.5L187.5,255l20.6-25.7l4.1-5.1l23.2-28.9l67.6,84.2c0.2,0.2,0.3,0.4,0.4,0.6
		C303.6,280.5,303.7,280.9,303.8,281.4z"/>
	<path class="st2" d="M68.1,265h85.2c1.3,0,2.4-0.6,3.2-1.5l27.4-34.2l45.8-57.2c1.2-1.5,1.2-3.7,0-5.2l-45.8-57.2l-27.4-34.2
		c-0.8-1-2-1.5-3.2-1.5H68.1c-3.5,0-5.4,4-3.2,6.7l68.9,85.9c1.3,1.7,1.3,4,0,5.7l-68.9,86C62.7,261,64.6,265,68.1,265z"/>
</g>
</svg>
