<svg width="879" height="295" viewBox="0 0 879 295" fill="none" xmlns="http://www.w3.org/2000/svg">
<g clip-path="url(#clip0_2_2)">
<path d="M343 84.7C372.5 84.7 397.4 94.3 417.7 113.6C438 132.8 448.1 157.1 448.1 186.3C448.1 215.3 437.8 239.7 417.3 259.4C397 278.9 372.3 288.7 343 288.7C313.8 288.7 289 279 268.7 259.4C248.4 239.9 238.3 215.5 238.3 186.3C238.3 157 248.4 132.8 268.7 113.6C289.2 94.3 314 84.7 343 84.7ZM343 256.3C361.7 256.3 377.5 249.8 390.3 236.7C403.4 223.4 409.9 206.6 409.9 186.3C409.9 166.3 403.4 149.7 390.3 136.7C377.5 123.5 361.7 117 343 117C324.5 117 308.7 123.5 295.7 136.6C282.7 149.7 276 166.3 276 186.3C276 206.3 282.5 223 295.6 236.3C308.8 249.6 324.5 256.3 343 256.3Z" fill="#181C24"/>
<path d="M489.2 277.3V108C489.2 99.5 493.4 95.3 501.9 95.3H512.7C521.2 95.3 525.4 99.5 525.4 108V130.3L524.2 144.9H525C529.9 130.3 537.7 118.1 548.5 108.3C559.3 98.6 571.3 93.7 584.7 93.7C592.9 93.7 597 97.9 597 106.4V117.2C597 125.7 592.4 129.9 583.1 129.9C565.1 129.9 551.2 138 541.2 154.1C531.4 170 526.6 188.5 526.6 209.5V277.2C526.6 285.7 522.4 289.9 513.9 289.9H502C493.5 290 489.2 285.8 489.2 277.3Z" fill="#181C24"/>
<path d="M651.6 56.4H638.5C630 56.4 625.8 52.2 625.8 43.7V31C625.8 22.5 630 18.3 638.5 18.3H651.6C660.1 18.3 664.3 22.5 664.3 31V43.7C664.3 52.2 660.1 56.4 651.6 56.4ZM626.2 277.3V108C626.2 99.5 630.4 95.3 638.9 95.3H650.8C659.3 95.3 663.5 99.5 663.5 108V277.3C663.5 285.8 659.3 290 650.8 290H638.9C630.5 290 626.2 285.8 626.2 277.3Z" fill="#181C24"/>
<path d="M717.8 277.3V31C717.8 22.5 722 18.3 730.5 18.3H742.4C750.6 18.3 754.7 22.5 754.7 31V166.5H782.8L830.1 103.4C833.4 98 838.4 95.3 845.1 95.3H859.3C864.4 95.3 867.8 96.8 869.3 99.9C870.8 103 870.1 106.6 867 110.7L813.1 181.1V181.9L875.4 274.6C878.2 279 878.8 282.6 877.1 285.6C875.4 288.6 872 290 866.9 290H851.5C845.1 290 840.1 287.1 836.5 281.1L783.4 198.7H754.5V277.2C754.5 285.7 750.4 289.9 742.2 289.9H730.3C722.1 290 717.8 285.8 717.8 277.3Z" fill="#181C24"/>
<path d="M199.6 158.5H185.8C179.8 158.5 175 153.6 175 147.7V28.8C175 22.8 179.9 18 185.8 18H199.6C205.6 18 210.4 22.9 210.4 28.8V147.6C210.4 153.6 205.6 158.5 199.6 158.5Z" fill="#3A30BA"/>
<path d="M104.6 288.6C46.9 288.6 0 242.4 0 185.7C0 128.9 46.9 82.7 104.6 82.7H112.3C118.3 82.7 123.2 87.6 123.2 93.6V105.7C123.2 111.7 118.3 116.6 112.3 116.6H104.6C65.6 116.6 33.8 147.6 33.8 185.8C33.8 224 65.6 255 104.6 255C140.4 255 170.1 228.9 174.8 195.2C175.5 189.9 180 185.9 185.4 185.9H197.8C204.3 185.9 209.4 191.6 208.6 198C202.5 248.9 158.2 288.6 104.6 288.6Z" fill="#181C24"/>
</g>
<defs>
<clipPath id="clip0_2_2">
<rect width="878.3" height="294.6" fill="white"/>
</clipPath>
</defs>
</svg>
