<svg width="512" height="512" viewBox="0 0 512 512" fill="none" xmlns="http://www.w3.org/2000/svg">
<rect width="512" height="512" rx="76.8" fill="#096DD9"/>
<circle cx="255.999" cy="132.8" r="52.8" stroke="white" stroke-width="30.8" stroke-linejoin="round"/>
<path d="M363.8 374.267C363.8 382.773 370.695 389.667 379.2 389.667C387.705 389.667 394.6 382.773 394.6 374.267H363.8ZM117.4 374.267C117.4 382.773 124.295 389.667 132.8 389.667C141.305 389.667 148.2 382.773 148.2 374.267H117.4ZM220.8 238.398L236.027 240.7C236.799 235.592 234.958 230.437 231.125 226.973C227.293 223.509 221.978 222.198 216.974 223.481L220.8 238.398ZM291.2 238.398L295.025 223.481C290.021 222.198 284.707 223.509 280.874 226.973C277.041 230.437 275.201 235.592 275.973 240.7L291.2 238.398ZM311.733 374.267L322.813 384.964L328.097 379.49L326.96 371.966L311.733 374.267ZM256 431.998L244.92 442.695L256 454.171L267.079 442.695L256 431.998ZM200.266 374.267L185.039 371.966L183.902 379.49L189.187 384.964L200.266 374.267ZM148.2 374.267C148.2 312.685 173.413 266.449 224.625 253.316L216.974 223.481C146.731 241.495 117.4 305.112 117.4 374.267H148.2ZM287.374 253.316C338.587 266.449 363.8 312.685 363.8 374.267H394.6C394.6 305.112 365.269 241.495 295.025 223.481L287.374 253.316ZM300.654 363.571L244.92 421.302L267.079 442.695L322.813 384.964L300.654 363.571ZM267.079 421.302L211.346 363.571L189.187 384.964L244.92 442.695L267.079 421.302ZM205.573 236.097L185.039 371.966L215.494 376.569L236.027 240.7L205.573 236.097ZM326.96 371.966L306.427 236.097L275.973 240.7L296.506 376.569L326.96 371.966Z" fill="white"/>
</svg>
