<svg width="189" height="50" viewBox="0 0 189 50" fill="none" xmlns="http://www.w3.org/2000/svg">
<path d="M0.462171 29.9213V29.2188H5.17631V30.1431C5.17631 31.733 5.48442 32.8976 6.10065 33.6371C6.71688 34.3643 7.64738 34.7278 8.89216 34.7278C10.0753 34.7278 10.9873 34.3396 11.6282 33.5632C12.2691 32.7744 12.5895 31.4803 12.5895 29.6809V11.0832H17.5995V29.2927C17.5995 32.2136 16.86 34.4752 15.381 36.0774C13.9021 37.6672 11.7884 38.4622 9.04006 38.4622C6.34098 38.4622 4.23348 37.7473 2.71756 36.3177C1.21397 34.8881 0.462171 32.7559 0.462171 29.9213ZM20.6601 31.4926V19.8275H25.5222V31.2153C25.5222 32.5094 25.7933 33.4153 26.3356 33.9329C26.8779 34.4382 27.6358 34.6909 28.6095 34.6909C29.4599 34.6909 30.2055 34.4444 30.8464 33.9514C31.4996 33.4584 32.011 32.8237 32.3808 32.0472V19.8275H37.2243V38H32.5656L32.4917 35.6337H32.4362C31.8816 36.4841 31.1175 37.1619 30.1439 37.6672C29.1702 38.1602 28.0487 38.4067 26.7793 38.4067C24.9429 38.4067 23.464 37.8768 22.3424 36.8168C21.2209 35.7446 20.6601 33.9699 20.6601 31.4926ZM40.2295 43.7864L41.8564 40.5327C42.3617 41.001 43.1381 41.4447 44.1857 41.8637C45.2456 42.2951 46.3733 42.5108 47.5688 42.5108C48.9245 42.5108 50.0645 42.0979 50.9889 41.2722C51.9132 40.4464 52.3754 39.1215 52.3754 37.2975V35.7631C51.8454 36.5272 51.1306 37.1434 50.2309 37.6118C49.3435 38.0678 48.2282 38.2958 46.8848 38.2958C44.5924 38.2958 42.7561 37.4516 41.3757 35.7631C40.0077 34.0746 39.3237 31.887 39.3237 29.2003V28.6087C39.3237 25.9219 39.9954 23.7282 41.3387 22.0274C42.6944 20.3143 44.5493 19.4577 46.9033 19.4577C48.1111 19.4577 49.208 19.7104 50.1939 20.2157C51.1799 20.721 51.907 21.3557 52.3754 22.1198H52.4493L52.5233 19.8275H57.182V36.8353C57.182 39.8302 56.35 42.1226 54.6862 43.7124C53.0224 45.3023 50.8286 46.0972 48.1049 46.0972C46.4781 46.0972 44.9868 45.8754 43.6311 45.4317C42.2754 44.988 41.1416 44.4396 40.2295 43.7864ZM44.2042 29.2557C44.2042 30.8826 44.5493 32.2075 45.2395 33.2304C45.9296 34.241 46.9957 34.7463 48.4377 34.7463C49.399 34.7463 50.2186 34.4752 50.8964 33.9329C51.5743 33.3906 52.0549 32.7682 52.3384 32.0657V25.7432C52.0426 25.0038 51.5558 24.3691 50.8779 23.8391C50.2001 23.3091 49.3805 23.0442 48.4192 23.0442C46.9896 23.0442 45.9296 23.5618 45.2395 24.5971C44.5493 25.6323 44.2042 26.9572 44.2042 28.5717V29.2557ZM60.1687 43.7864L61.7955 40.5327C62.3008 41.001 63.0773 41.4447 64.1249 41.8637C65.1848 42.2951 66.3125 42.5108 67.5079 42.5108C68.8636 42.5108 70.0037 42.0979 70.928 41.2722C71.8524 40.4464 72.3145 39.1215 72.3145 37.2975V35.7631C71.7846 36.5272 71.0697 37.1434 70.1701 37.6118C69.2827 38.0678 68.1673 38.2958 66.8239 38.2958C64.5316 38.2958 62.6952 37.4516 61.3149 35.7631C59.9468 34.0746 59.2628 31.887 59.2628 29.2003V28.6087C59.2628 25.9219 59.9345 23.7282 61.2779 22.0274C62.6336 20.3143 64.4884 19.4577 66.8424 19.4577C68.0502 19.4577 69.1471 19.7104 70.1331 20.2157C71.119 20.721 71.8462 21.3557 72.3145 22.1198H72.3885L72.4624 19.8275H77.1211V36.8353C77.1211 39.8302 76.2892 42.1226 74.6254 43.7124C72.9616 45.3023 70.7678 46.0972 68.0441 46.0972C66.4172 46.0972 64.926 45.8754 63.5703 45.4317C62.2146 44.988 61.0807 44.4396 60.1687 43.7864ZM64.1433 29.2557C64.1433 30.8826 64.4884 32.2075 65.1786 33.2304C65.8688 34.241 66.9349 34.7463 68.3768 34.7463C69.3381 34.7463 70.1577 34.4752 70.8356 33.9329C71.5134 33.3906 71.9941 32.7682 72.2775 32.0657V25.7432C71.9818 25.0038 71.4949 24.3691 70.8171 23.8391C70.1392 23.3091 69.3197 23.0442 68.3583 23.0442C66.9287 23.0442 65.8688 23.5618 65.1786 24.5971C64.4884 25.6323 64.1433 26.9572 64.1433 28.5717V29.2557ZM80.2557 38V10.3807H85.1178V38H80.2557ZM87.2726 29.1818V28.5902C87.2726 25.8049 88.0983 23.568 89.7498 21.8795C91.4136 20.1787 93.6012 19.3283 96.3126 19.3283C98.9994 19.3283 101.082 20.1294 102.561 21.7316C104.04 23.3215 104.78 25.5214 104.78 28.3314V29.9028H90.1565V27.0003H100.01V26.723C100.01 25.6508 99.7019 24.7388 99.0857 23.987C98.4818 23.2352 97.5574 22.8593 96.3126 22.8593C94.9323 22.8593 93.8847 23.3646 93.1699 24.3752C92.4674 25.3858 92.1161 26.6799 92.1161 28.2574V29.2927C92.1161 30.9935 92.492 32.3554 93.2438 33.3783C94.0079 34.4012 95.1295 34.9127 96.6084 34.9127C97.619 34.9127 98.4818 34.6909 99.1966 34.2472C99.9114 33.8035 100.478 33.2489 100.897 32.5834L104.576 34.3581C104.009 35.5536 103.06 36.5395 101.729 37.316C100.398 38.0924 98.7098 38.4807 96.6639 38.4807C93.6937 38.4807 91.3828 37.6364 89.7313 35.948C88.0922 34.2595 87.2726 32.0041 87.2726 29.1818Z" fill="white"/>
<rect x="110.732" y="0.902344" width="78.1979" height="48.1979" rx="7.09894" fill="#096DD9"/>
<path d="M120.217 38V11.0832H125.227V22.0644H135.616V11.0832H140.608V38H135.616V26.1499H125.227V38H120.217ZM144.075 38V19.8275H148.974V38H144.075ZM143.687 13.9671C143.687 13.2277 143.933 12.6053 144.426 12.1C144.919 11.5947 145.622 11.342 146.534 11.342C147.446 11.342 148.142 11.5947 148.623 12.1C149.116 12.5929 149.362 13.2153 149.362 13.9671C149.362 14.7066 149.116 15.3352 148.623 15.8528C148.13 16.3704 147.427 16.6292 146.515 16.6292C145.603 16.6292 144.901 16.3704 144.408 15.8528C143.927 15.3352 143.687 14.7066 143.687 13.9671ZM152.164 38V19.8275H156.897L156.952 22.1383H157.026C157.482 21.3742 158.086 20.7271 158.838 20.1972C159.59 19.6672 160.459 19.4023 161.445 19.4023C161.74 19.4023 162.036 19.4331 162.332 19.4947C162.628 19.544 162.837 19.5933 162.961 19.6426V23.5803C162.739 23.5187 162.48 23.4694 162.184 23.4324C161.901 23.3954 161.593 23.3769 161.26 23.3769C160.372 23.3769 159.553 23.6481 158.801 24.1903C158.062 24.7203 157.488 25.4043 157.082 26.2424V38H152.164ZM162.897 29.1818V28.5902C162.897 25.8049 163.723 23.568 165.374 21.8795C167.038 20.1787 169.226 19.3283 171.937 19.3283C174.624 19.3283 176.707 20.1294 178.186 21.7316C179.665 23.3215 180.404 25.5214 180.404 28.3314V29.9028H165.781V27.0003H175.634V26.723C175.634 25.6508 175.326 24.7388 174.71 23.987C174.106 23.2352 173.182 22.8593 171.937 22.8593C170.557 22.8593 169.509 23.3646 168.794 24.3752C168.092 25.3858 167.741 26.6799 167.741 28.2574V29.2927C167.741 30.9935 168.116 32.3554 168.868 33.3783C169.632 34.4012 170.754 34.9127 172.233 34.9127C173.243 34.9127 174.106 34.6909 174.821 34.2472C175.536 33.8035 176.103 33.2489 176.522 32.5834L180.201 34.3581C179.634 35.5536 178.685 36.5395 177.354 37.316C176.023 38.0924 174.334 38.4807 172.288 38.4807C169.318 38.4807 167.007 37.6364 165.356 35.948C163.717 34.2595 162.897 32.0041 162.897 29.1818Z" fill="white"/>
</svg>
